<svg width="20" height="20" viewBox="0 0 20 20" fill="none" xmlns="http://www.w3.org/2000/svg">
<path d="M19.1845 0.139648H0.8125V19.3468H19.1845V0.139648Z" fill="#DE0029"/>
<path d="M4.26536 6.61157L3.89609 7.82422L2.67969 7.83785L3.66584 8.57362L3.30961 9.75902L4.26536 9.03233L5.23848 9.74539L4.86487 8.55999L5.83799 7.80606L4.64331 7.82422L4.26536 6.61157Z" fill="white"/>
<path d="M8.09348 6.61157L7.72422 7.82422L6.50781 7.83785L7.49397 8.57362L7.13774 9.75902L8.09348 9.03233L9.06226 9.74539L8.693 8.55999L9.66612 7.80606L8.46709 7.82422L8.09348 6.61157Z" fill="white"/>
<path d="M11.9333 6.61157L11.5641 7.82422L10.3477 7.83785L11.3382 8.57362L10.9819 9.75902L11.9333 9.03233L12.9064 9.74539L12.5372 8.55999L13.506 7.80606L12.3156 7.82422L11.9333 6.61157Z" fill="white"/>
<path d="M10.0036 9.3728L9.63437 10.5855L8.41797 10.5991L9.39978 11.3348L9.04355 12.5202L10.0036 11.7936L10.9724 12.5066L10.6032 11.3212L11.5719 10.5673L10.3772 10.5855L10.0036 9.3728Z" fill="white"/>
<path d="M6.17161 9.3728L5.798 10.5855L4.58594 10.5991L5.56775 11.3348L5.21152 12.5202L6.17161 11.7936L7.13604 12.5066L6.76678 11.3212L7.7399 10.5673L6.54522 10.5855L6.17161 9.3728Z" fill="white"/>
<path d="M13.8489 9.3728L13.4796 10.5855L12.2676 10.5991L13.2494 11.3348L12.8975 12.5202L13.8489 11.7936L14.822 12.5066L14.4528 11.3212L15.4215 10.5673L14.2312 10.5855L13.8489 9.3728Z" fill="white"/>
<path d="M15.7732 6.61157L15.4039 7.82422L14.1875 7.83785L15.1737 8.57362L14.8174 9.75902L15.7732 9.03233L16.7419 9.74539L16.3727 8.55999L17.3415 7.80606L16.1511 7.82422L15.7732 6.61157Z" fill="white"/>
</svg>
